<svg width="39" height="39" viewBox="0 0 39 39" fill="none" xmlns="http://www.w3.org/2000/svg">
<path d="M26.7394 12.1144C27.0827 11.7875 27.5397 11.6068 28.0137 11.6104C28.4878 11.614 28.9419 11.8016 29.2803 12.1337C29.6187 12.4657 29.8149 12.9162 29.8274 13.3902C29.8399 13.8641 29.6678 14.3243 29.3475 14.6738L19.6219 26.8369C19.4546 27.0171 19.2528 27.1616 19.0284 27.262C18.804 27.3623 18.5617 27.4164 18.316 27.4209C18.0702 27.4255 17.8261 27.3804 17.5981 27.2884C17.3702 27.1965 17.1632 27.0595 16.9894 26.8857L10.5397 20.4361C10.3601 20.2687 10.2161 20.0669 10.1161 19.8426C10.0162 19.6184 9.9625 19.3763 9.95817 19.1308C9.95384 18.8854 9.99899 18.6415 10.0909 18.4139C10.1829 18.1863 10.3197 17.9795 10.4933 17.8059C10.6669 17.6323 10.8737 17.4955 11.1013 17.4035C11.329 17.3116 11.5728 17.2664 11.8183 17.2707C12.0637 17.2751 12.3058 17.3288 12.53 17.4287C12.7543 17.5286 12.9561 17.6727 13.1235 17.8523L18.2276 22.954L26.6931 12.1681C26.7083 12.1493 26.7246 12.1314 26.7418 12.1144H26.7394Z" fill="white"/>
</svg>
