<svg width="31" height="32" viewBox="0 0 31 32" fill="none" xmlns="http://www.w3.org/2000/svg">
<path d="M16.0767 4.45264H15.6783L12.4043 11.1548H19.3508L16.0767 4.45264ZM21.4298 11.1548H27.8534L25.2765 5.86966C25.0704 5.44428 24.7526 5.0863 24.359 4.83597C23.9653 4.58564 23.5113 4.45289 23.0481 4.45264H18.1557L21.4298 11.1548ZM27.5547 13.0697H16.8112V26.2824L27.5547 13.0697ZM14.9439 26.2824V13.0697H4.20039L14.9439 26.2824ZM10.3253 11.1548L13.5869 4.45264H8.70692C8.24371 4.45289 7.78976 4.58564 7.3961 4.83597C7.00243 5.0863 6.68468 5.44428 6.47855 5.86966L3.90161 11.1548H10.3253Z" fill="white"/>
</svg>
