<svg width="26" height="25" viewBox="0 0 26 25" fill="none" xmlns="http://www.w3.org/2000/svg">
<path d="M24.18 7.46872C24.0489 6.97526 23.8465 6.50191 23.5787 6.06247C23.3216 5.60533 22.9927 5.18899 22.6037 4.82809C22.0398 4.28768 21.372 3.85783 20.6375 3.56247C19.159 2.97901 17.501 2.97901 16.0225 3.56247C15.3282 3.84503 14.6904 4.24156 14.1375 4.73434L14.0562 4.82809L13 5.84372L11.9437 4.82809L11.8625 4.73434C11.3096 4.24156 10.6717 3.84503 9.97748 3.56247C8.49898 2.97901 6.84097 2.97901 5.36248 3.56247C4.62795 3.85783 3.96015 4.28768 3.39623 4.82809C2.62494 5.5497 2.07896 6.46437 1.81998 7.46872C1.6822 7.97875 1.61661 8.50432 1.62498 9.03122C1.62498 9.52809 1.68998 10.0218 1.81998 10.5C1.95621 10.9844 2.15262 11.4513 2.40498 11.8906C2.67752 12.3422 3.01081 12.7572 3.39623 13.125L13 22.3593L22.6037 13.125C22.9889 12.7625 23.3187 12.3468 23.5787 11.8906C24.1065 11.0236 24.3816 10.0358 24.375 9.03122C24.3834 8.50432 24.3178 7.97874 24.18 7.46872V7.46872Z" fill="white"/>
</svg>
